<svg width="32" height="32" viewBox="0 0 32 32" fill="none" xmlns="http://www.w3.org/2000/svg">
<rect x="0.5" y="0.5" width="31" height="31" rx="2.83333" stroke="#3E9CDC"/>
<path d="M19.3725 18.4154L18.9411 18.8702C18.9411 18.8702 17.9142 19.9504 15.1125 17.0009C12.3107 14.0513 13.3376 12.9711 13.3376 12.9711L13.6087 12.684C14.2791 11.9792 14.3426 10.8468 13.7576 10.0195L12.5629 8.32991C11.8385 7.3059 10.44 7.17037 9.61041 8.04379L8.12183 9.60992C7.71128 10.0436 7.43632 10.6038 7.4695 11.2262C7.55484 12.8195 8.2356 16.2459 12.032 20.2435C16.0587 24.4821 19.8371 24.6508 21.3816 24.4982C21.8708 24.45 22.2956 24.187 22.6379 23.8256L23.9842 22.408C24.8945 21.4513 24.6385 19.8098 23.4741 19.1402L21.6632 18.0971C20.899 17.6584 19.9698 17.7869 19.3725 18.4154Z" fill="#3E9CDC"/>
</svg>
