<svg width="32" height="32" viewBox="0 0 32 32" fill="none" xmlns="http://www.w3.org/2000/svg">
<path d="M6.71836 16.2133L10.8873 17.7857L12.5125 23.0747C12.5831 23.4321 13.0071 23.5036 13.2897 23.2891L15.6215 21.3594C15.8335 21.145 16.1868 21.145 16.4694 21.3594L20.6383 24.4327C20.921 24.6471 21.3449 24.5042 21.4156 24.1468L24.5246 9.1375C24.5953 8.78014 24.242 8.42277 23.8887 8.56572L6.71836 15.2842C6.2944 15.4271 6.2944 16.0704 6.71836 16.2133ZM12.3005 16.9995L20.497 11.9249C20.6383 11.8535 20.7797 12.0679 20.6383 12.1394L13.9257 18.5005C13.7137 18.7149 13.5017 19.0008 13.5017 19.3581L13.2897 21.0735C13.2897 21.2879 12.9364 21.3594 12.8658 21.0735L12.0178 17.9287C11.8059 17.5713 11.9472 17.1425 12.3005 16.9995Z" fill="#3E9CDC"/>
<rect x="0.5" y="0.5" width="31" height="31" rx="2.83333" stroke="#3E9CDC"/>
</svg>
