<svg width="25" height="25" viewBox="0 0 25 25" fill="none" xmlns="http://www.w3.org/2000/svg">
<rect x="0.5" y="0.5" width="24" height="24" rx="2.83333" stroke="white"/>
<path d="M16.836 5.36394C14.2949 4.87869 11.6562 4.87869 9.11518 5.36394C7.99127 5.60657 6.57417 6.96529 6.32984 8.03285C5.89005 10.1195 5.89005 12.2546 6.32984 14.3412C6.62304 15.4088 8.04014 16.7675 9.11518 17.0101C9.16405 17.0101 9.21291 17.0586 9.21291 17.1072V20.1643C9.21291 20.3098 9.40838 20.4069 9.50611 20.2613L10.9721 18.757C10.9721 18.757 12.1449 17.5439 12.3403 17.3498C12.3403 17.3498 12.3892 17.3013 12.438 17.3013C13.904 17.3498 15.4188 17.2042 16.8848 16.9616C18.0087 16.7189 19.4258 15.3602 19.6702 14.2927C20.1099 12.2061 20.1099 10.0709 19.6702 7.98433C19.377 6.96529 17.9599 5.60657 16.836 5.36394ZM16.8848 14.4868C16.6405 14.972 16.3473 15.3602 15.8586 15.6029C15.712 15.6514 15.5654 15.6999 15.4188 15.7484C15.2234 15.6999 15.0768 15.6514 14.9302 15.6029C13.3665 14.972 11.9005 14.0986 10.7277 12.8369C10.0925 12.109 9.55497 11.2841 9.11518 10.4106C8.91972 9.97388 8.72426 9.58567 8.57766 9.14894C8.43106 8.76074 8.67539 8.37253 8.91972 8.08138C9.16405 7.79023 9.45724 7.59612 9.7993 7.45055C10.0436 7.30497 10.288 7.40202 10.4834 7.59612C10.8743 8.08138 11.2653 8.56664 11.5585 9.10042C11.7539 9.4401 11.7051 9.8283 11.363 10.0709C11.2653 10.1195 11.2164 10.168 11.1187 10.265C11.0698 10.3136 10.9721 10.3621 10.9232 10.4591C10.8255 10.6047 10.8255 10.7503 10.8743 10.8959C11.2653 12.012 11.9983 12.8854 13.1222 13.3707C13.3176 13.4677 13.4642 13.5163 13.7086 13.5163C14.0506 13.4677 14.1972 13.0795 14.4415 12.8854C14.6859 12.6913 14.9791 12.6913 15.2723 12.8369C15.5166 12.9825 15.7609 13.1766 16.0541 13.3707C16.2984 13.5648 16.5428 13.7104 16.7871 13.9045C16.9337 14.0015 16.9825 14.2441 16.8848 14.4868ZM14.8325 10.8473C14.7347 10.8473 14.7836 10.8473 14.8325 10.8473C14.637 10.8473 14.5881 10.7503 14.5393 10.6047C14.5393 10.5077 14.5393 10.3621 14.4904 10.265C14.4415 10.0709 14.3438 9.87683 14.1483 9.73125C14.0506 9.68273 13.9529 9.6342 13.8551 9.58567C13.7085 9.53715 13.6108 9.53715 13.4642 9.53715C13.3176 9.48862 13.2688 9.39157 13.2688 9.246C13.2688 9.14894 13.4154 9.05189 13.5131 9.05189C14.2949 9.10042 14.8813 9.53715 14.9791 10.4591C14.9791 10.5077 14.9791 10.6047 14.9791 10.6532C14.9791 10.7503 14.9302 10.8473 14.8325 10.8473ZM14.3438 8.71221C14.0995 8.61516 13.8551 8.51811 13.562 8.46958C13.4642 8.46958 13.3176 8.42106 13.2199 8.42106C13.0733 8.42106 12.9756 8.32401 13.0244 8.17843C13.0244 8.03285 13.1222 7.9358 13.2688 7.98433C13.7574 8.03285 14.1972 8.12991 14.637 8.32401C15.5166 8.76074 16.0052 9.48862 16.1518 10.4591C16.1518 10.5077 16.1518 10.5562 16.1518 10.6047C16.1518 10.7018 16.1518 10.7988 16.1518 10.9444C16.1518 10.9929 16.1518 11.0414 16.1518 11.09C16.103 11.2841 15.7609 11.3326 15.712 11.09C15.712 11.0414 15.6632 10.9444 15.6632 10.8959C15.6632 10.4591 15.5654 10.0224 15.37 9.6342C15.0768 9.19747 14.7347 8.90632 14.3438 8.71221ZM16.9825 11.6238C16.8359 11.6238 16.7382 11.4782 16.7382 11.3326C16.7382 11.0414 16.6894 10.7503 16.6405 10.4591C16.445 8.90631 15.1745 7.64465 13.6597 7.40202C13.4154 7.35349 13.171 7.35349 12.9756 7.30497C12.829 7.30497 12.6335 7.30497 12.5846 7.11087C12.5358 6.96529 12.6824 6.81971 12.829 6.81971C12.8778 6.81971 12.9267 6.81971 12.9267 6.81971C13.0244 6.81971 14.9302 6.86824 12.9267 6.81971C14.9791 6.86824 16.6894 8.22696 17.0314 10.265C17.0803 10.6047 17.1291 10.9444 17.1291 11.3326C17.2269 11.4782 17.1291 11.6238 16.9825 11.6238Z" fill="white"/>
</svg>
