<svg width="32" height="32" viewBox="0 0 32 32" fill="none" xmlns="http://www.w3.org/2000/svg">
<path d="M23.7012 9.35546C21.7946 7.45546 19.2524 6.3999 16.569 6.3999C10.9904 6.3999 6.47101 10.9036 6.47101 16.4629C6.47101 18.2221 6.96532 19.9814 7.8127 21.4592L6.40039 26.6666L11.7672 25.2592C13.2501 26.0332 14.8743 26.4555 16.569 26.4555C22.1477 26.4555 26.6671 21.9518 26.6671 16.3925C26.5964 13.7888 25.6078 11.2555 23.7012 9.35546ZM21.4415 20.0518C21.2297 20.6147 20.241 21.1777 19.7467 21.2481C19.323 21.3184 18.7581 21.3184 18.1932 21.1777C17.8401 21.0369 17.3458 20.8962 16.7809 20.6147C14.2387 19.5592 12.6146 17.0258 12.4733 16.8147C12.3321 16.674 11.4141 15.4777 11.4141 14.211C11.4141 12.9443 12.0496 12.3814 12.2615 12.0999C12.4733 11.8184 12.7558 11.8184 12.9676 11.8184C13.1089 11.8184 13.3207 11.8184 13.4619 11.8184C13.6032 11.8184 13.815 11.7481 14.0269 12.2406C14.2387 12.7332 14.733 13.9999 14.8036 14.0703C14.8743 14.211 14.8743 14.3518 14.8036 14.4925C14.733 14.6332 14.6624 14.774 14.5212 14.9147C14.3799 15.0555 14.2387 15.2666 14.1681 15.3369C14.0269 15.4777 13.8856 15.6184 14.0269 15.8295C14.1681 16.111 14.6624 16.8851 15.4392 17.5888C16.4278 18.4332 17.2046 18.7147 17.487 18.8555C17.7695 18.9962 17.9107 18.9258 18.052 18.7851C18.1932 18.6443 18.6875 18.0814 18.8287 17.7999C18.97 17.5184 19.1818 17.5888 19.3937 17.6592C19.6055 17.7295 20.8766 18.3629 21.0884 18.5036C21.3709 18.6443 21.5121 18.7147 21.5827 18.7851C21.6533 18.9962 21.6534 19.4888 21.4415 20.0518Z" fill="#3E9CDC"/>
<rect x="0.5" y="0.5" width="31" height="31" rx="2.83333" stroke="#3E9CDC"/>
</svg>
